<svg width="24" height="24" viewBox="0 0 24 24" fill="none" xmlns="http://www.w3.org/2000/svg">
<path d="M8.67989 10.36H5.3199C4.3899 10.36 3.63989 9.60999 3.63989 8.67999V5.32001C3.63989 4.39001 4.3899 3.64001 5.3199 3.64001H8.67989C9.60989 3.64001 10.3599 4.39001 10.3599 5.32001V8.67999C10.3599 9.60999 9.60989 10.36 8.67989 10.36Z" stroke="#090C02" stroke-width="1.5" stroke-linecap="round" stroke-linejoin="round"/>
<path d="M18.6799 10.36H15.3199C14.3899 10.36 13.6399 9.60999 13.6399 8.67999V5.32001C13.6399 4.39001 14.3899 3.64001 15.3199 3.64001H18.6799C19.6099 3.64001 20.3599 4.39001 20.3599 5.32001V8.67999C20.3599 9.60999 19.6099 10.36 18.6799 10.36Z" stroke="#090C02" stroke-width="1.5" stroke-linecap="round" stroke-linejoin="round"/>
<path d="M8.67989 20.36H5.3199C4.3899 20.36 3.63989 19.61 3.63989 18.68V15.32C3.63989 14.39 4.3899 13.64 5.3199 13.64H8.67989C9.60989 13.64 10.3599 14.39 10.3599 15.32V18.68C10.3599 19.61 9.60989 20.36 8.67989 20.36Z" stroke="#090C02" stroke-width="1.5" stroke-linecap="round" stroke-linejoin="round"/>
<path d="M18.6799 20.36H15.3199C14.3899 20.36 13.6399 19.61 13.6399 18.68V15.32C13.6399 14.39 14.3899 13.64 15.3199 13.64H18.6799C19.6099 13.64 20.3599 14.39 20.3599 15.32V18.68C20.3599 19.61 19.6099 20.36 18.6799 20.36Z" stroke="#090C02" stroke-width="1.5" stroke-linecap="round" stroke-linejoin="round"/>
</svg>
